<?xml version="1.0" encoding="utf-8"?>
<!-- Generator: Adobe Illustrator 16.0.0, SVG Export Plug-In . SVG Version: 6.00 Build 0)  -->
<!DOCTYPE svg PUBLIC "-//W3C//DTD SVG 1.1//EN" "http://www.w3.org/Graphics/SVG/1.1/DTD/svg11.dtd">
<svg version="1.1" id="Layer_1" xmlns="http://www.w3.org/2000/svg" xmlns:xlink="http://www.w3.org/1999/xlink" x="0px" y="0px"
	 width="1980px" height="800px" viewBox="0 0 1980 800" enable-background="new 0 0 1980 800" xml:space="preserve">
<linearGradient id="SVGID_1_" gradientUnits="userSpaceOnUse" x1="989.9995" y1="1" x2="989.9995" y2="801.0005">
	<stop  offset="0" style="stop-color:#662D91"/>
	<stop  offset="1" style="stop-color:#9E1F63"/>
</linearGradient>
<rect display="none" fill="url(#SVGID_1_)" width="1980" height="800"/>
<polygon fill="#101121" points="1858.25,466.087 1858.25,370 1833.75,370 1833.75,363 1773.75,363 1773.75,370 1749.25,370 
	1749.25,511 1664,511 1664,521 1642,521 1642,589.099 1513,589.099 1513,659.5 1456,659.5 1456,633.043 1396,633.043 1396,524.175 
	1356,468 1356,392 1333.266,392 1333.266,380 1259,380 1259,392 1222,392 1222,501.579 1136.479,501.579 1136.479,480.343 
	1084.299,480.343 1084.299,472.455 1019.982,472.455 1019.982,539.079 1019.982,539.198 1018.146,539.198 956.962,509.861 
	895.778,539.198 893.776,539.198 893.776,582.28 806.037,582.28 806.037,492.479 796.661,492.479 796.661,487.625 739.66,487.625 
	739.66,482.771 720.85,482.771 720.85,487.625 712.321,487.625 712.321,492.479 701.674,492.479 701.674,520.997 615.879,520.997 
	615.879,545.268 538.518,614.438 538.518,633.043 531.54,633.043 531.54,626.573 498.623,626.573 498.623,633.043 458.729,633.043 
	458.729,651.45 383.491,681.788 383.491,539.079 291.263,539.079 291.263,611.404 265.779,611.404 265.779,633.043 239.082,633.043 
	239.082,423.916 189.396,423.916 189.396,405.106 165.565,405.106 137.821,420.846 137.821,423.916 138.195,423.916 
	138.195,466.087 0,466.087 0,800 157.656,800 157.656,799.997 239.082,799.997 265.779,799.997 291.263,799.997 383.491,799.997 
	458.729,799.997 538.518,799.997 615.879,799.997 701.674,799.997 805.037,799.997 806.037,799.997 893.776,799.997 
	956.879,799.997 1019.982,799.997 1084.299,799.997 1136.479,799.997 1222,799.997 1222,800 1259,800 1333.266,800 1356,800 
	1356,799.997 1396,799.997 1396,800 1456,800 1513,800 1642,800 1664,800 1749.25,800 1750.25,800 1858,800 1858.25,800 1980,800 
	1980,466.087 "/>
<rect x="631.52" y="529.829" fill="#FFFFFF" width="10" height="18.5"/>
<rect x="179.743" y="504.018" fill="#FFFFFF" width="10" height="10"/>
<rect x="152.656" y="455.5" fill="#FFFFFF" width="10" height="10"/>
<rect x="207.5" y="450.5" fill="#FFFFFF" width="10" height="10"/>
<rect x="16.934" y="489.018" fill="#FFFFFF" width="10" height="10"/>
<rect x="73.5" y="512" fill="#FFFFFF" width="10" height="10"/>
<rect x="106.934" y="484.018" fill="#FFFFFF" width="10" height="10"/>
<rect x="360" y="554" fill="#FFFFFF" width="10" height="10"/>
<rect x="332.934" y="554" fill="#FFFFFF" width="10" height="10"/>
<rect x="304.934" y="554" fill="#FFFFFF" width="10" height="10"/>
<rect x="88.5" y="664.75" fill="#FFFFFF" width="10" height="10"/>
<rect x="157.656" y="719.5" fill="#FFFFFF" width="10" height="10"/>
<rect x="16.934" y="747" fill="#FFFFFF" width="10" height="10"/>
<rect x="774.989" y="509.018" fill="#FFFFFF" width="10" height="10"/>
<rect x="719.869" y="507" fill="#FFFFFF" width="10" height="10"/>
<rect x="207.5" y="707.518" fill="#FFFFFF" width="10" height="10"/>
<rect x="841.233" y="712.518" fill="#FFFFFF" width="10" height="10"/>
<rect x="651.52" y="767" fill="#FFFFFF" width="10" height="10"/>
<rect x="197.5" y="566.5" fill="#FFFFFF" width="10" height="10"/>
<rect x="11.934" y="597.25" fill="#FFFFFF" width="10" height="18.5"/>
<rect x="476.5" y="740.5" fill="#FFFFFF" width="10" height="10"/>
<rect x="509.5" y="642" fill="#FFFFFF" width="10" height="20"/>
<rect x="475" y="646" fill="#FFFFFF" width="10" height="10"/>
<rect x="956.962" y="674.75" fill="#FFFFFF" width="10" height="21.5"/>
<rect x="528.406" y="680.5" fill="#FFFFFF" width="10" height="10"/>
<rect x="747" y="514.018" fill="#FFFFFF" width="10" height="10"/>
<rect x="262" y="767" fill="#FFFFFF" width="10" height="10"/>
<rect x="918.958" y="571.5" fill="#FFFFFF" width="10" height="10"/>
<rect x="312.934" y="612.543" fill="#FFFFFF" width="10" height="21"/>
<rect x="678.934" y="628.043" fill="#FFFFFF" width="10" height="10"/>
<rect x="244.5" y="661" fill="#FFFFFF" width="10" height="17.5"/>
<rect x="274" y="623.043" fill="#FFFFFF" width="10" height="10"/>
<rect x="688.934" y="727.018" fill="#FFFFFF" width="10" height="10"/>
<rect x="342.934" y="685.5" fill="#FFFFFF" width="10" height="10"/>
<rect x="668.934" y="566.5" fill="#FFFFFF" width="10" height="10"/>
<rect x="571.934" y="606.5" fill="#FFFFFF" width="10" height="10"/>
<rect x="1005.112" y="590.5" fill="#FFFFFF" width="10" height="10"/>
<rect x="1053.91" y="497.291" fill="#FFFFFF" width="10" height="10"/>
<rect x="1105.437" y="496.541" fill="#FFFFFF" width="10" height="10"/>
<rect x="1788" y="543.329" fill="#FFFFFF" width="10" height="10"/>
<rect x="865" y="601.5" fill="#FFFFFF" width="10" height="10"/>
<rect x="812" y="618.043" fill="#FFFFFF" width="10" height="10"/>
<rect x="1679" y="543.329" fill="#FFFFFF" width="10" height="10"/>
<rect x="1547" y="623.043" fill="#FFFFFF" width="10" height="10"/>
<rect x="1793" y="446" fill="#FFFFFF" width="10" height="10"/>
<rect x="1283" y="427" fill="#FFFFFF" width="10" height="10"/>
<rect x="1414" y="712.518" fill="#FFFFFF" width="10" height="10"/>
<rect x="1537" y="712.518" fill="#FFFFFF" width="10" height="10"/>
<rect x="1663" y="642" fill="#FFFFFF" width="10" height="10"/>
<rect x="1283" y="554" fill="#FFFFFF" width="10" height="10"/>
<rect x="1926" y="680.5" fill="#FFFFFF" width="10" height="10"/>
<rect x="1759" y="623.043" fill="#FFFFFF" width="10" height="10"/>
<rect x="1684" y="727.018" fill="#FFFFFF" width="10" height="10"/>
<rect x="1307" y="680.5" fill="#FFFFFF" width="10" height="10"/>
<rect x="1330" y="422" fill="#FFFFFF" width="10" height="10"/>
<rect x="1141" y="576.5" fill="#FFFFFF" width="10" height="10"/>
<rect x="1856" y="566.5" fill="#FFFFFF" width="10" height="10"/>
<rect x="1251" y="722.018" fill="#FFFFFF" width="10" height="10"/>
<rect x="1094" y="717.518" fill="#FFFFFF" width="10" height="10"/>
<rect x="1754" y="662" fill="#FFFFFF" width="10" height="10"/>
<rect x="1241" y="422" fill="#FFFFFF" width="10" height="10"/>
<rect x="1175" y="675.5" fill="#FFFFFF" width="10" height="10"/>
<rect x="1360.962" y="555.75" fill="#FFFFFF" width="10" height="21.5"/>
<rect x="1246" y="543.329" fill="#FFFFFF" width="10" height="10"/>
<rect x="1404" y="651.25" fill="#FFFFFF" width="10" height="21.5"/>
<rect x="1610" y="605" fill="#FFFFFF" width="10" height="21.5"/>
<rect x="1771" y="389.25" fill="#FFFFFF" width="10" height="21.5"/>
<rect x="1035.048" y="485.791" fill="#FFFFFF" width="10" height="21.5"/>
<rect x="1931" y="523.971" fill="#FFFFFF" width="10" height="21.5"/>
<rect x="1084" y="646" fill="#FFFFFF" width="10" height="10"/>
<rect x="1851" y="732.018" fill="#FFFFFF" width="10" height="10"/>
<rect x="1231" y="585.5" fill="#FFFFFF" width="10" height="10"/>
<rect x="1136" y="657.018" fill="#FFFFFF" width="10" height="10"/>
<rect x="1821" y="417" fill="#FFFFFF" width="10" height="10"/>
<rect x="1537" y="690.5" fill="#FFFFFF" width="10" height="10"/>
<rect x="1615" y="714.5" fill="#FFFFFF" width="10" height="10"/>
</svg>
